<?xml version="1.0" encoding="UTF-8"?>
<!DOCTYPE svg PUBLIC "-//W3C//DTD SVG 1.1//EN" "http://www.w3.org/Graphics/SVG/1.1/DTD/svg11.dtd">
<!-- Creator: CorelDRAW 2018 (64 Bit) -->
<svg xmlns="http://www.w3.org/2000/svg" xml:space="preserve" width="83.608mm" height="97.367mm" version="1.1" style="shape-rendering:geometricPrecision; text-rendering:geometricPrecision; image-rendering:optimizeQuality; fill-rule:evenodd; clip-rule:evenodd"
viewBox="0 0 8456.44 9848.08"
 xmlns:xlink="http://www.w3.org/1999/xlink">
 <defs>
  <style type="text/css">
   <![CDATA[
    .fil0 {fill:#E8E8E8}
   ]]>
  </style>
 </defs>
 <g id="Capa_x0020_1">
  <metadata id="CorelCorpID_0Corel-Layer"/>
  <polygon class="fil0" points="6636.69,1213.17 5022.11,0 8260.19,0 "/>
  <polygon class="fil0" points="6529.64,3113.2 6529.64,1418.33 4772.33,107.04 "/>
  <polygon class="fil0" points="6725.89,3095.36 6725.89,1427.25 8456.44,107.04 "/>
  <polygon class="fil0" points="4228.19,1926.77 5842.77,3139.94 2604.69,3139.94 "/>
  <polygon class="fil0" points="4335.24,26.74 4335.24,1721.61 6092.55,3032.9 "/>
  <polygon class="fil0" points="4138.99,44.58 4138.99,1712.69 2408.44,3032.9 "/>
  <polygon class="fil0" points="1953.55,1231.01 338.97,17.84 3577.06,17.84 "/>
  <polygon class="fil0" points="1846.5,3131.04 1846.5,1436.17 89.2,124.88 "/>
  <polygon class="fil0" points="2042.75,3113.2 2042.75,1445.09 3773.31,124.88 "/>
  <polygon class="fil0" points="4263.88,4567.21 2649.3,3354.04 5887.39,3354.04 "/>
  <polygon class="fil0" points="4156.83,6467.24 4156.83,4772.38 2399.53,3461.08 "/>
  <polygon class="fil0" points="4353.08,6449.4 4353.08,4781.3 6083.64,3461.08 "/>
  <polygon class="fil0" points="1855.39,5236.24 3469.98,6449.41 231.89,6449.41 "/>
  <polygon class="fil0" points="1962.45,3336.21 1962.45,5031.08 3719.75,6342.37 "/>
  <polygon class="fil0" points="1766.2,3354.05 1766.2,5022.16 35.64,6342.37 "/>
  <polygon class="fil0" points="1864.36,7948.05 249.77,6734.88 3487.86,6734.88 "/>
  <polygon class="fil0" points="1757.3,9848.08 1757.3,8153.21 -0,6841.92 "/>
  <polygon class="fil0" points="1953.55,9830.24 1953.55,8162.13 3684.11,6841.92 "/>
  <polygon class="fil0" points="1607.49,3215.84 92.93,5820.28 92.93,716.23 "/>
 </g>
</svg>
