<?xml version="1.0" encoding="UTF-8"?>
<!DOCTYPE svg PUBLIC "-//W3C//DTD SVG 1.1//EN" "http://www.w3.org/Graphics/SVG/1.1/DTD/svg11.dtd">
<!-- Creator: CorelDRAW 2018 (64 Bit) -->
<svg xmlns="http://www.w3.org/2000/svg" xml:space="preserve" width="83.608mm" height="97.367mm" version="1.1" style="shape-rendering:geometricPrecision; text-rendering:geometricPrecision; image-rendering:optimizeQuality; fill-rule:evenodd; clip-rule:evenodd"
viewBox="0 0 8456.44 9848.08"
 xmlns:xlink="http://www.w3.org/1999/xlink">
 <defs>
  <style type="text/css">
   <![CDATA[
    .fil0 {fill:#E8E8E8}
   ]]>
  </style>
 </defs>
 <g id="Capa_x0020_1">
  <metadata id="CorelCorpID_0Corel-Layer"/>
  <polygon class="fil0" points="1819.75,8634.91 3434.33,9848.08 196.25,9848.08 "/>
  <polygon class="fil0" points="1926.8,6734.88 1926.8,8429.75 3684.11,9741.04 "/>
  <polygon class="fil0" points="1730.55,6752.72 1730.55,8420.83 -0,9741.04 "/>
  <polygon class="fil0" points="4228.25,7921.31 2613.67,6708.14 5851.75,6708.14 "/>
  <polygon class="fil0" points="4121.2,9821.34 4121.2,8126.47 2363.9,6815.18 "/>
  <polygon class="fil0" points="4317.45,9803.5 4317.45,8135.39 6048,6815.18 "/>
  <polygon class="fil0" points="6502.89,8617.07 8117.47,9830.24 4879.39,9830.24 "/>
  <polygon class="fil0" points="6609.94,6717.04 6609.94,8411.91 8367.24,9723.2 "/>
  <polygon class="fil0" points="6413.69,6734.88 6413.69,8402.99 4683.14,9723.2 "/>
  <polygon class="fil0" points="4192.56,5280.87 5807.14,6494.04 2569.06,6494.04 "/>
  <polygon class="fil0" points="4299.61,3380.84 4299.61,5075.71 6056.91,6387 "/>
  <polygon class="fil0" points="4103.36,3398.68 4103.36,5066.78 2372.81,6387 "/>
  <polygon class="fil0" points="6601.05,4611.84 4986.47,3398.67 8224.55,3398.67 "/>
  <polygon class="fil0" points="6494,6511.87 6494,4817 4736.69,3505.71 "/>
  <polygon class="fil0" points="6690.25,6494.03 6690.25,4825.92 8420.8,3505.71 "/>
  <polygon class="fil0" points="6592.09,1900.03 8206.67,3113.2 4968.58,3113.2 "/>
  <polygon class="fil0" points="6699.14,0 6699.14,1694.87 8456.44,3006.16 "/>
  <polygon class="fil0" points="6502.89,17.84 6502.89,1685.95 4772.33,3006.16 "/>
  <polygon class="fil0" points="6848.95,6632.24 8363.51,4027.8 8363.51,9131.85 "/>
 </g>
</svg>
